# xmcd CD database file
#
# Track frame offsets:
#	150
#	7691
#	30830
#	43503
#	62680
#	81446
#	149818
#	170409
#	214143
#	231210
#	253424
#	269868
#	285819
#	305569
#	318848
#	338379
#	345832
#
# Disc length: 4727 seconds
#
# Revision: 2
# Processed by: cddbd v1.5.2PL0 Copyright (c) Steve Scherf et al.
# Submitted via: CDex 1.51
#
DISCID=ea127511
DTITLE=Various Artist - J.S. Bach (Sonates et Partitas) - Brice Pauset (Kontrapartita)  {David Grimal, violon}  [CD2]
DYEAR=2008
DGENRE=Classique
TTITLE0=Brice Pauset - Kontrapartita - Preludio
TTITLE1=J.S. Bach - Partita N°2 en ré mineur BWV.1004 - I. Allemande
TTITLE2=J.S. Bach - Partita N°2 en ré mineur BWV.1004 - II. Courante
TTITLE3=J.S. Bach - Partita N°2 en ré mineur BWV.1004 - III. Sarabande
TTITLE4=J.S. Bach - Partita N°2 en ré mineur BWV.1004 - IV. Gigue
TTITLE5=J.S. Bach - Partita N°2 en ré mineur BWV.1004 - V. Chaconne
TTITLE6=J.S. Bach - Sonate N°3 en do majeur BWV.1005 - I. Adagio
TTITLE7=J.S. Bach - Sonate N°3 en do majeur BWV.1005 - II. Fugue (Alla brève)
TTITLE8=J.S. Bach - Sonate N°3 en do majeur BWV.1005 - III. Largo
TTITLE9=J.S. Bach - Sonate N°3 en do majeur BWV.1005 - IV. Allegro assai
TTITLE10=Brice Pauset - Kontrapartita - Loure
TTITLE11=J.S. Bach - Partita N°3 en mi majeur BWV.1006 - I. Preludio
TTITLE12=J.S. Bach - Partita N°3 en mi majeur BWV.1006 - II. Loure
TTITLE13=J.S. Bach - Partita N°3 en mi majeur BWV.1006 - III. Gavotte en rondeau
TTITLE14=J.S. Bach - Partita N°3 en mi majeur BWV.1006 - IV. Menuet I and II
TTITLE15=J.S. Bach - Partita N°3 en mi majeur BWV.1006 - V. Bourrée
TTITLE16=J.S. Bach - Partita N°3 en mi majeur BWV.1006 - VI. Gigue
EXTD=YEAR: 2008
EXTT0=
EXTT1=
EXTT2=
EXTT3=
EXTT4=
EXTT5=
EXTT6=
EXTT7=
EXTT8=
EXTT9=
EXTT10=
EXTT11=
EXTT12=
EXTT13=
EXTT14=
EXTT15=
EXTT16=
PLAYORDER=
